<?xml version="1.0" standalone="no"?>
<!DOCTYPE svg PUBLIC "-//W3C//DTD SVG 20010904//EN"
 "http://www.w3.org/TR/2001/REC-SVG-20010904/DTD/svg10.dtd">
<svg version="1.0" xmlns="http://www.w3.org/2000/svg"
 width="300.000000pt" height="300.000000pt" viewBox="0 0 300.000000 300.000000"
 preserveAspectRatio="xMidYMid meet">
<metadata>
Created by potrace 1.14, written by Peter Selinger 2001-2017
</metadata>
<g transform="translate(0.000000,300.000000) scale(0.100000,-0.100000)"
fill="#000000" stroke="none">
<path d="M1350 2498 c-19 -5 -58 -26 -87 -45 -156 -103 -236 -335 -164 -472
17 -34 17 -38 2 -52 -15 -13 -63 -68 -105 -119 -80 -99 -226 -364 -268 -485
-23 -69 -27 -93 -24 -175 3 -106 20 -163 71 -245 30 -48 129 -135 153 -135 7
0 12 -4 12 -10 0 -5 8 -10 17 -10 28 0 -7 -30 -43 -36 -94 -16 -169 -99 -177
-196 -6 -73 11 -115 72 -173 21 -20 23 -32 23 -100 0 -80 -15 -162 -38 -207
-8 -15 -14 -30 -14 -33 0 -3 296 -4 658 -3 l657 3 0 57 c0 31 2 54 5 52 3 -3
16 -29 30 -57 l25 -52 118 -3 118 -3 -12 23 c-7 13 -15 25 -18 28 -8 6 -70
143 -76 167 -3 10 -11 45 -19 78 -15 58 -15 60 7 85 12 14 26 28 31 31 17 13
44 112 40 150 -12 127 -146 250 -261 242 -20 -2 -18 3 20 50 179 219 102 631
-178 962 -99 116 -216 216 -298 253 -39 19 -46 25 -37 40 16 29 28 108 24 166
-10 159 -130 262 -264 224z"/>
</g>
</svg>
